<svg xmlns="http://www.w3.org/2000/svg" viewBox="0 0 32 32">
	<rect width="32" height="32" rx="6" fill="#0a0e17"/>
	<path d="M8 10h10a2 2 0 0 1 2 2v0a2 2 0 0 1-2 2H8" stroke="#10b981" stroke-width="2.5" stroke-linecap="round" fill="none"/>
	<path d="M8 16h12a2 2 0 0 1 2 2v0a2 2 0 0 1-2 2H8" stroke="#34d399" stroke-width="2.5" stroke-linecap="round" fill="none"/>
	<path d="M8 22h8a2 2 0 0 1 2 2v0a2 2 0 0 1-2 2H8" stroke="#059669" stroke-width="2.5" stroke-linecap="round" fill="none"/>
	<circle cx="24" cy="11" r="2" fill="#10b981"/>
	<polyline points="23,17 24.5,18.5 27,15.5" stroke="#10b981" stroke-width="1.5" stroke-linecap="round" stroke-linejoin="round" fill="none"/>
</svg>
